#N canvas 1494 119 991 496 10;
#X obj 411 87 hsl 128 15 0 2 0 0 empty empty Amplitude -2 -8 0 10 -261234
-1 -1 2540 1;
#X obj 265 70 hsl 128 15 10 1000 1 0 empty empty Frequency -2 -8 0
10 -258113 -1 -1 8262 1;
#X floatatom 262 89 5 0 0 0 - - -;
#X floatatom 408 36 5 0 0 0 - - -;
#X obj 75 203 osc~ 50;
#X obj 74 287 *~;
#X obj 251 182 hsl 60 15 0 2 0 0 empty empty empty -2 -8 0 10 -261234
-1 -1 1180 1;
#X obj 78 183 hsl 100 15 10 1000 1 0 empty empty empty -2 -8 0 10 -258113
-1 -1 6440 1;
#X floatatom 34 198 5 0 0 0 - - -;
#X floatatom 248 202 5 0 0 0 - - -;
#X floatatom 248 141 5 0 0 0 - - -;
#X obj 551 198 osc~ 50;
#X obj 551 280 *~;
#X obj 704 179 hsl 60 15 0 2 0 0 empty empty empty -2 -8 0 10 -261234
-1 -1 1180 1;
#X obj 554 179 hsl 100 15 10 1000 1 0 empty empty empty -2 -8 0 10
-258113 -1 -1 6440 1;
#X floatatom 505 194 5 0 0 0 - - -;
#X floatatom 701 197 5 0 0 0 - - -;
#X floatatom 701 139 5 0 0 0 - - -;
#X floatatom 551 138 5 0 0 0 - - -;
#X obj 334 224 osc~ 50;
#X obj 337 204 hsl 100 15 0.1 200 1 0 empty empty empty -2 -8 0 10
-4034 -1 -1 7429 1;
#X floatatom 288 202 5 0 0 0 - - -;
#X floatatom 75 138 5 0 0 0 - - -;
#X obj 783 216 osc~ 50;
#X obj 786 197 hsl 100 15 0.1 200 1 0 empty empty empty -2 -8 0 10
-4034 -1 -1 7429 1;
#X floatatom 739 196 5 0 0 0 - - -;
#X obj 709 296 *~;
#X obj 556 68 hsl 128 15 0.1 200 1 0 empty empty Modulation -2 -8 0
10 -4034 -1 -1 9530 1;
#X obj 194 304 *~;
#X floatatom 408 107 5 0 0 0 - - -;
#X floatatom 552 86 5 0 0 0 - - -;
#X obj 194 347 *~ 1;
#X floatatom 215 325 1 0 0 0 - - -;
#X obj 709 338 *~ 1;
#X floatatom 730 316 1 0 0 0 - - -;
#X msg 262 16 200;
#X msg 408 15 0.4;
#X msg 553 16 30;
#X obj 66 -17 loadbang;
#X obj 123 0 bng 15 250 50 0 empty empty empty 17 7 0 10 -262144 -1
-1;
#X text 332 312 LEFT CHANNEL;
#X text 795 313 RIGHT CHANNEL;
#X msg 436 17 0;
#X obj 719 69 hsl 200 15 0 4000 0 0 empty empty Duration -2 -8 0 10
-260097 -1 -1 4975 1;
#X floatatom 716 88 5 0 0 0 - - -;
#X obj 248 224 pack f f;
#X obj 337 274 hsl 100 15 0 4000 0 0 empty empty empty -2 -8 0 10 -260097
-1 -1 2475 1;
#X floatatom 334 293 5 0 0 0 - - -;
#X msg 716 16 1000;
#X obj 197 270 vline~;
#X obj 77 70 bng 25 250 50 0 empty empty Play_Once 27 12 0 10 -159808
-1 -1;
#X obj 701 217 pack f f;
#X obj 650 263 vline~;
#X obj 798 274 hsl 100 15 0 4000 0 0 empty empty empty -2 -8 0 10 -260097
-1 -1 2475 1;
#X floatatom 795 293 5 0 0 0 - - -;
#X obj 262 36 r stimulationFreq;
#X obj 262 111 s stimulationFreqInit;
#X obj 408 129 s stimulationAmpInit;
#X obj 408 52 r stimulationAmp;
#X obj 553 36 r stimulationMod;
#X obj 716 37 r stimulationDur;
#X obj 552 109 s stimulationModInit;
#X obj 716 110 s stimulationDurInit;
#X obj 77 44 r stimulationTrigger;
#X msg 198 248 0 \, \$1 0 0 \, 0 \$2 0;
#X msg 649 242 0 \, \$1 0 0 \, 0 \$2 0;
#X obj 81 158 r stimulationFreqLeft;
#X obj 257 159 r stimulationAmpLeft;
#X obj 334 180 r stimulationModLeft;
#X obj 335 251 r stimulationDurLeft;
#X obj 558 157 r stimulationFreqRight;
#X obj 710 158 r stimulationAmpRight;
#X obj 783 176 r stimulationModRight;
#X obj 799 252 r stimulationDurRight;
#X obj 194 368 dac~;
#X connect 0 0 6 0;
#X connect 0 0 13 0;
#X connect 0 0 29 0;
#X connect 1 0 2 0;
#X connect 1 0 7 0;
#X connect 1 0 14 0;
#X connect 2 0 56 0;
#X connect 3 0 0 0;
#X connect 4 0 5 0;
#X connect 5 0 28 0;
#X connect 6 0 9 0;
#X connect 7 0 4 0;
#X connect 7 0 8 0;
#X connect 9 0 45 0;
#X connect 10 0 6 0;
#X connect 11 0 12 0;
#X connect 12 0 26 0;
#X connect 13 0 16 0;
#X connect 14 0 11 0;
#X connect 14 0 15 0;
#X connect 16 0 51 0;
#X connect 17 0 13 0;
#X connect 18 0 14 0;
#X connect 19 0 28 1;
#X connect 20 0 19 0;
#X connect 20 0 21 0;
#X connect 22 0 7 0;
#X connect 23 0 26 1;
#X connect 24 0 23 0;
#X connect 24 0 25 0;
#X connect 26 0 33 0;
#X connect 27 0 24 0;
#X connect 27 0 20 0;
#X connect 27 0 30 0;
#X connect 28 0 31 0;
#X connect 29 0 57 0;
#X connect 30 0 61 0;
#X connect 31 0 74 0;
#X connect 32 0 31 1;
#X connect 33 0 74 1;
#X connect 34 0 33 1;
#X connect 35 0 1 0;
#X connect 36 0 3 0;
#X connect 37 0 27 0;
#X connect 38 0 39 0;
#X connect 39 0 35 0;
#X connect 39 0 36 0;
#X connect 39 0 37 0;
#X connect 39 0 48 0;
#X connect 42 0 3 0;
#X connect 43 0 44 0;
#X connect 44 0 46 0;
#X connect 44 0 53 0;
#X connect 44 0 62 0;
#X connect 45 0 64 0;
#X connect 46 0 47 0;
#X connect 47 0 45 1;
#X connect 48 0 43 0;
#X connect 49 0 5 1;
#X connect 50 0 6 0;
#X connect 50 0 13 0;
#X connect 50 0 46 0;
#X connect 50 0 53 0;
#X connect 51 0 65 0;
#X connect 52 0 12 1;
#X connect 53 0 54 0;
#X connect 54 0 51 1;
#X connect 55 0 1 0;
#X connect 58 0 0 0;
#X connect 59 0 27 0;
#X connect 60 0 43 0;
#X connect 63 0 50 0;
#X connect 64 0 49 0;
#X connect 65 0 52 0;
#X connect 66 0 7 0;
#X connect 67 0 6 0;
#X connect 68 0 20 0;
#X connect 69 0 46 0;
#X connect 70 0 14 0;
#X connect 71 0 13 0;
#X connect 72 0 24 0;
#X connect 73 0 53 0;
