#N canvas 1398 299 672 438 10;
#X text 177 23 sensor input;
#X obj 161 202 *~;
#X obj 127 254 dac~;
#X text 266 24 Change adc and dac to corresponding channels when everything
is plugged in.;
#X text 137 86 Tactile frequency;
#X floatatom 238 195 5 0 0 0 - - -;
#X obj 198 152 dbtorms;
#X obj 86 172 osc~ 120;
#X msg 198 284 0;
#X floatatom 198 364 5 0 0 0 - - -;
#X text 274 241 Filters noise. Moses is an if statement. If input <
0.05 \, output from left outlet. Else \, output from the right outlet.
;
#X obj 255 303 moses 1;
#X msg 294 338 1;
#X obj 198 179 * 0.5;
#X obj 198 125 env~;
#X obj 198 245 moses 0.01;
#X text 314 299 Cap the input.;
#X text 54 135 Tactile amplitude;
#X obj 77 282 outlet~ hapticOut;
#X obj 198 41 adc~;
#X obj 179 392 outlet sensorIn;
#X connect 1 0 2 0;
#X connect 1 0 2 1;
#X connect 1 0 18 0;
#X connect 6 0 13 0;
#X connect 7 0 1 0;
#X connect 8 0 9 0;
#X connect 9 0 1 1;
#X connect 9 0 20 0;
#X connect 11 0 9 0;
#X connect 11 1 12 0;
#X connect 12 0 9 0;
#X connect 13 0 5 0;
#X connect 13 0 15 0;
#X connect 14 0 6 0;
#X connect 15 0 8 0;
#X connect 15 1 11 0;
#X connect 19 0 14 0;
