#N canvas 553 23 601 337 10;
#X obj 16 13 tgl 15 0 empty empty empty 17 7 0 10 -262144 -1 -1 1 1
;
#X msg 16 44 \; pd dsp \$1;
#X text 177 23 sensor input;
#X obj 114 267 dac~;
#X text 266 24 Change adc and dac to corresponding channels when everything
is plugged in.;
#X obj 179 41 adc~;
#X text 9 161 Tacile amplitude;
#X text 147 264 comment;
#X obj 118 225 *~ 3;
#X obj 122 182 lop~ 40;
#X obj 196 79 loadbang;
#X floatatom 161 160 5 0 0 0 - - -;
#X obj 164 142 hsl 128 15 0 127 0 0 empty empty empty -2 -8 0 10 -262144
-1 -1 4000 1;
#X msg 161 122 40;
#X floatatom 179 224 5 0 0 0 - - -;
#X obj 182 206 hsl 128 15 0 6 0 0 empty empty empty -2 -8 0 10 -262144
-1 -1 4762 1;
#X msg 179 186 2.25;
#X obj 16 95 outlet~ sensor;
#X obj 29 244 outlet~ haptic;
#X connect 0 0 1 0;
#X connect 5 0 9 0;
#X connect 5 0 17 0;
#X connect 8 0 3 0;
#X connect 8 0 3 1;
#X connect 8 0 18 0;
#X connect 9 0 8 0;
#X connect 10 0 0 0;
#X connect 10 0 13 0;
#X connect 10 0 16 0;
#X connect 11 0 9 1;
#X connect 12 0 11 0;
#X connect 13 0 12 0;
#X connect 14 0 8 1;
#X connect 15 0 14 0;
#X connect 16 0 15 0;
