#N canvas 1472 839 991 496 10;
#X obj 350 69 hsl 128 15 0 2 0 0 empty empty Amplitude -2 -8 0 10 -261234
-1 -1 2540 1;
#X obj 204 70 hsl 128 15 10 1000 1 0 empty empty Frequency -2 -8 0
10 -258113 -1 -1 8262 1;
#X floatatom 201 89 5 0 0 0 - - -;
#X floatatom 347 36 5 0 0 0 - - -;
#X obj 201 206 osc~ 50;
#X obj 200 290 *~;
#X obj 218 248 hsl 60 15 0 2 0 0 empty empty empty -2 -8 0 10 -261234
-1 -1 1180 1;
#X obj 204 186 hsl 100 15 10 1000 1 0 empty empty empty -2 -8 0 10
-258113 -1 -1 6440 1;
#X floatatom 160 201 5 0 0 0 - - -;
#X floatatom 215 268 5 0 0 0 - - -;
#X floatatom 214 228 5 0 0 0 - - -;
#X obj 536 201 osc~ 50;
#X obj 536 283 *~;
#X obj 554 242 hsl 60 15 0 2 0 0 empty empty empty -2 -8 0 10 -261234
-1 -1 1180 1;
#X obj 539 182 hsl 100 15 10 1000 1 0 empty empty empty -2 -8 0 10
-258113 -1 -1 6440 1;
#X floatatom 500 197 5 0 0 0 - - -;
#X floatatom 551 260 5 0 0 0 - - -;
#X floatatom 551 223 5 0 0 0 - - -;
#X floatatom 536 161 5 0 0 0 - - -;
#X obj 375 251 osc~ 50;
#X obj 378 231 hsl 100 15 0.1 200 1 0 empty empty empty -2 -8 0 10
-4034 -1 -1 7429 1;
#X floatatom 334 246 5 0 0 0 - - -;
#X floatatom 201 163 5 0 0 0 - - -;
#X obj 718 257 osc~ 50;
#X obj 721 237 hsl 100 15 0.1 200 1 0 empty empty empty -2 -8 0 10
-4034 -1 -1 7429 1;
#X floatatom 677 252 5 0 0 0 - - -;
#X obj 703 300 *~;
#X obj 495 68 hsl 128 15 0.1 200 1 0 empty empty Modulation -2 -8 0
10 -4034 -1 -1 9530 1;
#X obj 360 307 *~;
#X floatatom 347 89 5 0 0 0 - - -;
#X floatatom 491 86 5 0 0 0 - - -;
#X obj 360 371 *~ 1;
#X floatatom 381 349 1 0 0 0 - - -;
#X obj 703 365 *~ 1;
#X floatatom 724 343 1 0 0 0 - - -;
#X msg 201 16 200;
#X msg 347 15 0.4;
#X msg 492 16 30;
#X obj 66 -17 loadbang;
#X obj 123 0 bng 15 250 50 0 empty empty empty 17 7 0 10 -262144 -1
-1;
#X text 245 133 LEFT CHANNEL;
#X text 601 134 RIGHT CHANNEL;
#X msg 387 16 0;
#X obj 211 37 r modulationFreq;
#X obj 386 36 r modulationAmp;
#X obj 503 34 r modulationMod;
#X obj 213 111 s modulationFreqInit;
#X obj 358 110 s modulationAmpInit;
#X obj 503 110 s modulationModInit;
#X obj 239 162 r modulationFreqLeft;
#X obj 375 210 r modulationModLeft;
#X obj 573 161 r modulationFreqRight;
#X obj 718 215 r modulationModRight;
#X obj 251 226 r modulationAmpLeft;
#X obj 587 222 r modulationAmpRight;
#X obj 360 393 dac~;
#X connect 0 0 6 0;
#X connect 0 0 13 0;
#X connect 0 0 29 0;
#X connect 0 0 47 0;
#X connect 1 0 2 0;
#X connect 1 0 7 0;
#X connect 1 0 14 0;
#X connect 1 0 46 0;
#X connect 3 0 0 0;
#X connect 4 0 5 0;
#X connect 5 0 28 0;
#X connect 6 0 9 0;
#X connect 7 0 4 0;
#X connect 7 0 8 0;
#X connect 9 0 5 1;
#X connect 10 0 6 0;
#X connect 11 0 12 0;
#X connect 12 0 26 0;
#X connect 13 0 16 0;
#X connect 14 0 11 0;
#X connect 14 0 15 0;
#X connect 16 0 12 1;
#X connect 17 0 13 0;
#X connect 18 0 14 0;
#X connect 19 0 28 1;
#X connect 20 0 19 0;
#X connect 20 0 21 0;
#X connect 22 0 7 0;
#X connect 23 0 26 1;
#X connect 24 0 23 0;
#X connect 24 0 25 0;
#X connect 26 0 33 0;
#X connect 27 0 24 0;
#X connect 27 0 20 0;
#X connect 27 0 30 0;
#X connect 27 0 48 0;
#X connect 28 0 31 0;
#X connect 31 0 55 0;
#X connect 32 0 31 1;
#X connect 33 0 55 1;
#X connect 34 0 33 1;
#X connect 35 0 1 0;
#X connect 36 0 3 0;
#X connect 37 0 27 0;
#X connect 38 0 39 0;
#X connect 39 0 35 0;
#X connect 39 0 36 0;
#X connect 39 0 37 0;
#X connect 42 0 3 0;
#X connect 43 0 1 0;
#X connect 44 0 0 0;
#X connect 45 0 27 0;
#X connect 49 0 7 0;
#X connect 50 0 20 0;
#X connect 51 0 14 0;
#X connect 52 0 24 0;
#X connect 53 0 6 0;
#X connect 54 0 13 0;
