#N canvas 1441 378 1143 654 10;
#X obj 233 219 hsl 128 15 0 2 0 0 empty empty Amplitude -2 -8 0 10
-261234 -1 -1 2540 1;
#X obj 205 70 hsl 128 15 10 1000 1 0 empty empty Frequency -2 -8 0
10 -258113 -1 -1 8300 1;
#X floatatom 202 89 5 0 0 0 - - -;
#X floatatom 230 184 5 0 0 0 - - -;
#X obj 75 323 osc~ 50;
#X obj 75 427 *~;
#X obj 232 302 hsl 60 15 0 2 0 0 empty empty empty -2 -8 0 10 -261234
-1 -1 1180 1;
#X obj 78 303 hsl 100 15 10 1000 1 0 empty empty empty -2 -8 0 10 -258113
-1 -1 6470 1;
#X floatatom 34 318 5 0 0 0 - - -;
#X floatatom 229 322 5 0 0 0 - - -;
#X floatatom 228 282 5 0 0 0 - - -;
#X obj 532 318 osc~ 50;
#X obj 533 403 *~;
#X obj 695 299 hsl 60 15 0 2 0 0 empty empty empty -2 -8 0 10 -261234
-1 -1 1180 1;
#X obj 535 299 hsl 100 15 10 1000 1 0 empty empty empty -2 -8 0 10
-258113 -1 -1 6470 1;
#X floatatom 486 314 5 0 0 0 - - -;
#X floatatom 692 317 5 0 0 0 - - -;
#X floatatom 692 280 5 0 0 0 - - -;
#X floatatom 532 278 5 0 0 0 - - -;
#X obj 343 342 osc~ 50;
#X obj 346 322 hsl 100 15 0.1 200 1 0 empty empty empty -2 -8 0 10
-4034 -1 -1 6805 1;
#X floatatom 269 322 5 0 0 0 - - -;
#X floatatom 75 280 5 0 0 0 - - -;
#X obj 830 342 osc~ 50;
#X obj 833 320 hsl 100 15 0.1 200 1 0 empty empty empty -2 -8 0 10
-4034 -1 -1 6805 1;
#X floatatom 879 343 5 0 0 0 - - -;
#X obj 653 421 *~;
#X obj 375 67 hsl 128 15 0.1 200 1 0 empty empty Modulation -2 -8 0
10 -4034 -1 -1 8730 1;
#X obj 233 452 *~;
#X floatatom 230 239 5 0 0 0 - - -;
#X floatatom 372 89 5 0 0 0 - - -;
#X obj 853 178 *~ 1;
#X floatatom 874 156 1 0 0 0 - - -;
#X obj 945 177 *~ 1;
#X floatatom 966 155 1 0 0 0 - - -;
#X msg 202 16 200;
#X msg 230 163 0.4;
#X msg 372 15 30;
#X obj 66 -17 loadbang;
#X obj 173 1 bng 15 250 50 0 empty empty empty 17 7 0 10 -262144 -1
-1;
#X text 361 446 LEFT CHANNEL;
#X text 779 446 RIGHT CHANNEL;
#X msg 258 163 0;
#X obj 408 217 hsl 200 15 0 4000 0 0 empty empty Duration -2 -8 0 10
-260097 -1 -1 4975 1;
#X floatatom 405 236 5 0 0 0 - - -;
#X obj 345 386 hsl 100 15 0 4000 0 0 empty empty empty -2 -8 0 10 -260097
-1 -1 2475 1;
#X floatatom 342 405 5 0 0 0 - - -;
#X msg 405 153 1000;
#X obj 178 390 vline~;
#X obj 65 70 bng 25 250 50 0 empty empty Play_Once 27 12 0 10 -159808
-1 -1;
#X obj 641 383 vline~;
#X obj 834 387 hsl 100 15 0 4000 0 0 empty empty empty -2 -8 0 10 -260097
-1 -1 2475 1;
#X floatatom 831 406 5 0 0 0 - - -;
#X obj 229 344 pack f f f;
#X obj 692 337 pack f f f;
#X msg 851 12 1000;
#X obj 854 60 hsl 200 15 0 4000 0 0 empty empty SOA -2 -8 0 10 -4032
-1 -1 12175 1;
#X floatatom 851 79 5 0 0 0 - - -;
#X obj 668 217 hsl 128 15 0 200 0 0 empty empty Ramp -2 -8 0 10 -257985
-1 -1 5550 1;
#X floatatom 670 235 5 0 0 0 - - -;
#X msg 666 153 100;
#X obj 346 425 bng 15 250 50 0 empty empty empty 17 7 0 10 -262144
-1 -1;
#X obj 831 428 bng 15 250 50 0 empty empty empty 17 7 0 10 -262144
-1 -1;
#X obj 722 255 bng 15 250 50 0 empty empty empty 17 7 0 10 -262144
-1 -1;
#X obj 233 474 delwrite~ AM1 20000;
#X obj 653 444 delwrite~ AM2 20000;
#X obj 853 133 delread~ AM1 0;
#X obj 945 133 delread~ AM2 0;
#X obj 253 -67 bng 50 250 50 0 empty empty PLAY 60 7 0 10 -261682 -1
-1;
#X msg 178 368 0 \, \$1 \$3 0 \, 0 \$3 \$2;
#X obj 65 46 r illusionTrigger;
#X obj 259 50 r illusionFreq;
#X obj 238 88 s illusionFreqInit;
#X obj 287 200 r illusionAmp;
#X obj 435 47 r illusionMod;
#X obj 693 199 r illusionRamp;
#X obj 875 40 r illusionSOA;
#X obj 173 138 bng 15 250 50 0 empty empty empty 17 7 0 10 -262144
-1 -1;
#X obj 456 197 r illusionDur;
#X obj 406 84 s illusionModInit;
#X obj 887 78 s illusionSOAInit;
#X obj 707 234 s illusionRampInit;
#X obj 689 383 s illusionLineRight;
#X obj 224 390 s illusionLineLeft;
#X obj 442 235 s illusionDurInit;
#X obj 270 239 s illusionAmpInit;
#X msg 641 361 0 \, \$1 \$3 0 \, 0 \$3 \$2;
#X obj 112 279 r illusionFreqLeft;
#X obj 264 278 r illusionAmpLeft;
#X obj 349 301 r illusionModLeft;
#X obj 352 364 r illusionDurLeft;
#X obj 571 277 r illusionFreqRight;
#X obj 729 278 r illusionAmpRight;
#X obj 830 298 r illusionModRight;
#X obj 835 364 r illusionDurRight;
#X obj 853 224 dac~;
#X msg 717 122 1;
#X msg 748 122 0;
#X obj 748 97 r mute;
#X obj 406 266 s mute;
#X obj 292 422 s mute;
#X obj 775 421 s mute;
#X connect 0 0 6 0;
#X connect 0 0 29 0;
#X connect 0 0 13 0;
#X connect 0 0 85 0;
#X connect 0 0 99 0;
#X connect 1 0 2 0;
#X connect 1 0 7 0;
#X connect 1 0 14 0;
#X connect 1 0 72 0;
#X connect 3 0 0 0;
#X connect 4 0 5 0;
#X connect 5 0 28 0;
#X connect 6 0 9 0;
#X connect 6 0 100 0;
#X connect 7 0 4 0;
#X connect 7 0 8 0;
#X connect 9 0 53 0;
#X connect 10 0 6 0;
#X connect 11 0 12 0;
#X connect 12 0 26 0;
#X connect 13 0 16 0;
#X connect 13 0 101 0;
#X connect 14 0 11 0;
#X connect 14 0 15 0;
#X connect 16 0 54 0;
#X connect 17 0 13 0;
#X connect 18 0 14 0;
#X connect 19 0 28 1;
#X connect 20 0 19 0;
#X connect 20 0 21 0;
#X connect 22 0 7 0;
#X connect 23 0 26 1;
#X connect 24 0 23 0;
#X connect 24 0 25 0;
#X connect 26 0 65 0;
#X connect 27 0 24 0;
#X connect 27 0 20 0;
#X connect 27 0 30 0;
#X connect 27 0 79 0;
#X connect 28 0 64 0;
#X connect 31 0 95 0;
#X connect 32 0 31 1;
#X connect 33 0 95 1;
#X connect 34 0 33 1;
#X connect 35 0 1 0;
#X connect 36 0 3 0;
#X connect 37 0 27 0;
#X connect 38 0 39 0;
#X connect 39 0 35 0;
#X connect 39 0 37 0;
#X connect 39 0 55 0;
#X connect 39 0 77 0;
#X connect 42 0 3 0;
#X connect 43 0 44 0;
#X connect 43 0 84 0;
#X connect 43 0 99 0;
#X connect 44 0 45 0;
#X connect 44 0 51 0;
#X connect 45 0 46 0;
#X connect 46 0 53 1;
#X connect 46 0 61 0;
#X connect 47 0 43 0;
#X connect 48 0 5 1;
#X connect 49 0 6 0;
#X connect 49 0 13 0;
#X connect 49 0 45 0;
#X connect 49 0 51 0;
#X connect 49 0 96 0;
#X connect 50 0 12 1;
#X connect 51 0 52 0;
#X connect 51 0 101 0;
#X connect 52 0 54 1;
#X connect 52 0 62 0;
#X connect 53 0 69 0;
#X connect 54 0 86 0;
#X connect 55 0 56 0;
#X connect 56 0 57 0;
#X connect 56 0 80 0;
#X connect 56 0 63 0;
#X connect 56 0 101 0;
#X connect 57 0 67 0;
#X connect 58 0 59 0;
#X connect 58 0 53 2;
#X connect 58 0 63 0;
#X connect 58 0 81 0;
#X connect 58 0 54 2;
#X connect 58 0 101 0;
#X connect 60 0 58 0;
#X connect 61 0 6 0;
#X connect 62 0 13 0;
#X connect 63 0 6 0;
#X connect 63 0 13 0;
#X connect 66 0 31 0;
#X connect 67 0 33 0;
#X connect 68 0 0 0;
#X connect 69 0 48 0;
#X connect 69 0 83 0;
#X connect 70 0 49 0;
#X connect 71 0 1 0;
#X connect 73 0 0 0;
#X connect 74 0 27 0;
#X connect 75 0 58 0;
#X connect 76 0 56 0;
#X connect 77 0 36 0;
#X connect 77 0 47 0;
#X connect 77 0 60 0;
#X connect 78 0 43 0;
#X connect 86 0 50 0;
#X connect 86 0 82 0;
#X connect 87 0 7 0;
#X connect 88 0 6 0;
#X connect 89 0 20 0;
#X connect 90 0 45 0;
#X connect 91 0 14 0;
#X connect 92 0 13 0;
#X connect 93 0 24 0;
#X connect 94 0 51 0;
#X connect 96 0 31 1;
#X connect 96 0 33 1;
#X connect 97 0 31 1;
#X connect 97 0 33 1;
#X connect 98 0 97 0;
